<svg xmlns="http://www.w3.org/2000/svg" xmlns:xlink="http://www.w3.org/1999/xlink" xmlns:lucid="lucid" width="1722" height="928"><g transform="translate(-108 -341)" lucid:page-tab-id="0_0"><path d="M1532.43 637.5H1820v111.82h-287.57z" fill="none"/><use xlink:href="#a" transform="matrix(1,0,0,1,1532.430836946107,637.5109361329833) translate(2.958888888888895 36.982222222222234)"/><use xlink:href="#b" transform="matrix(1,0,0,1,1532.430836946107,637.5109361329833) translate(22.22222222222222 36.982222222222234)"/><use xlink:href="#c" transform="matrix(1,0,0,1,1532.430836946107,637.5109361329833) translate(81.40222222222218 36.982222222222234)"/><use xlink:href="#d" transform="matrix(1,0,0,1,1532.430836946107,637.5109361329833) translate(163.87777777777768 36.982222222222234)"/><use xlink:href="#e" transform="matrix(1,0,0,1,1532.430836946107,637.5109361329833) translate(202.64666666666653 36.982222222222234)"/><use xlink:href="#f" transform="matrix(1,0,0,1,1532.430836946107,637.5109361329833) translate(22.22222222222222 61.42666666666666)"/><use xlink:href="#a" transform="matrix(1,0,0,1,1532.430836946107,637.5109361329833) translate(2.958888888888895 85.87111111111109)"/><use xlink:href="#g" transform="matrix(1,0,0,1,1532.430836946107,637.5109361329833) translate(22.22222222222222 85.87111111111109)"/><use xlink:href="#h" transform="matrix(1,0,0,1,1532.430836946107,637.5109361329833) translate(96.33777777777772 85.87111111111109)"/><use xlink:href="#i" transform="matrix(1,0,0,1,1532.430836946107,637.5109361329833) translate(159.25777777777768 85.87111111111109)"/><path d="M120 366.35a6 6 0 0 1 6-6h262.05a6 6 0 0 1 6 6v95.08a6 6 0 0 1-6 6H126a6 6 0 0 1-6-6z" stroke="#1071e5" stroke-width="1.2" fill="#dae6fe" fill-opacity=".78"/><use xlink:href="#j" transform="matrix(1,0,0,1,124.99999999999997,365.3455818022747) translate(14.286666666666747 42.14888888888888)"/><use xlink:href="#k" transform="matrix(1,0,0,1,124.99999999999997,365.3455818022747) translate(170.4133333333333 42.14888888888888)"/><use xlink:href="#l" transform="matrix(1,0,0,1,124.99999999999997,365.3455818022747) translate(63.35888888888894 66.5933333333333)"/><use xlink:href="#m" transform="matrix(1,0,0,1,124.99999999999997,365.3455818022747) translate(92.32555555555558 66.5933333333333)"/><use xlink:href="#n" transform="matrix(1,0,0,1,124.99999999999997,365.3455818022747) translate(111.5388888888889 66.5933333333333)"/><path d="M478.38 366.35a6 6 0 0 1 6-6h198.8a6 6 0 0 1 6 6v95.08a6 6 0 0 1-6 6H484.4a6 6 0 0 1-6-6z" stroke="#1071e5" stroke-width="1.2" fill="#dae6fe" fill-opacity=".78"/><use xlink:href="#o" transform="matrix(1,0,0,1,483.37797355348994,365.3455818022747) translate(9.224444444444515 29.898888888888873)"/><use xlink:href="#p" transform="matrix(1,0,0,1,483.37797355348994,365.3455818022747) translate(155.5733333333333 29.898888888888873)"/><use xlink:href="#q" transform="matrix(1,0,0,1,483.37797355348994,365.3455818022747) translate(56.194444444444485 54.343333333333305)"/><use xlink:href="#r" transform="matrix(1,0,0,1,483.37797355348994,365.3455818022747) translate(16.936666666666724 78.78777777777773)"/><use xlink:href="#s" transform="matrix(1,0,0,1,483.37797355348994,365.3455818022747) translate(46.58777777777781 78.78777777777773)"/><path d="M773.5 366.35a6 6 0 0 1 6-6h198.82a6 6 0 0 1 6 6v95.08a6 6 0 0 1-6 6h-198.8a6 6 0 0 1-6-6z" stroke="#1071e5" stroke-width="1.2" fill="#dae6fe" fill-opacity=".78"/><use xlink:href="#t" transform="matrix(1,0,0,1,778.5127753034226,365.3455818022747) translate(25.60222222222228 29.898888888888873)"/><use xlink:href="#u" transform="matrix(1,0,0,1,778.5127753034226,365.3455818022747) translate(84.95333333333335 29.898888888888873)"/><use xlink:href="#v" transform="matrix(1,0,0,1,778.5127753034226,365.3455818022747) translate(127.26666666666664 29.898888888888873)"/><use xlink:href="#w" transform="matrix(1,0,0,1,778.5127753034226,365.3455818022747) translate(1.8300000000000693 54.343333333333305)"/><use xlink:href="#x" transform="matrix(1,0,0,1,778.5127753034226,365.3455818022747) translate(53.65222222222225 54.343333333333305)"/><use xlink:href="#y" transform="matrix(1,0,0,1,778.5127753034226,365.3455818022747) translate(159.05666666666662 54.343333333333305)"/><use xlink:href="#z" transform="matrix(1,0,0,1,778.5127753034226,365.3455818022747) translate(80.12555555555556 78.78777777777773)"/><path d="M1068.65 366a6 6 0 0 1 6-6h198.8a6 6 0 0 1 6 6v95.78a6 6 0 0 1-6 6h-198.8a6 6 0 0 1-6-6z" stroke="#1071e5" stroke-width="1.2" fill="#dae6fe" fill-opacity=".78"/><use xlink:href="#A" transform="matrix(1,0,0,1,1073.6475770533557,365) translate(18.35444444444451 20.711388888888873)"/><use xlink:href="#B" transform="matrix(1,0,0,1,1073.6475770533557,365) translate(155.73222222222216 20.711388888888873)"/><use xlink:href="#C" transform="matrix(1,0,0,1,1073.6475770533557,365) translate(26.360000000000056 45.1558333333333)"/><use xlink:href="#D" transform="matrix(1,0,0,1,1073.6475770533557,365) translate(86.42000000000002 45.1558333333333)"/><use xlink:href="#E" transform="matrix(1,0,0,1,1073.6475770533557,365) translate(133.27999999999997 45.1558333333333)"/><use xlink:href="#F" transform="matrix(1,0,0,1,1073.6475770533557,365) translate(23.475555555555616 69.60027777777772)"/><use xlink:href="#G" transform="matrix(1,0,0,1,1073.6475770533557,365) translate(91.67555555555556 69.60027777777772)"/><use xlink:href="#H" transform="matrix(1,0,0,1,1073.6475770533557,365) translate(139.3911111111111 69.60027777777772)"/><use xlink:href="#I" transform="matrix(1,0,0,1,1073.6475770533557,365) translate(48.091111111111154 94.04472222222215)"/><path d="M752.43 550.34a6 6 0 0 1 6-6h304.22a6 6 0 0 1 6 6v81.17a6 6 0 0 1-6 6H758.43a6 6 0 0 1-6-6z" stroke="#6db1ff" stroke-width="1.2" fill="#f2f3f5"/><use xlink:href="#J" transform="matrix(1,0,0,1,757.4317180355704,549.3350831146106) translate(26.486666666666764 46.52388888888888)"/><use xlink:href="#K" transform="matrix(1,0,0,1,757.4317180355704,549.3350831146106) translate(198.28222222222217 46.52388888888888)"/><path d="M395.22 413.9h65.8" stroke="#1071e5" stroke-width="1.2" fill="none"/><path d="M395.23 414.5h-.6v-1.2h.6z" stroke="#1071e5" stroke-width=".05" fill="#1071e5"/><path d="M475.87 413.9l-14.26 4.62v-9.27z" stroke="#1071e5" stroke-width="1.2" fill="#1071e5"/><path d="M690.35 413.9h65.8" stroke="#1071e5" stroke-width="1.2" fill="none"/><path d="M690.37 414.5h-.62v-1.2h.62z" stroke="#1071e5" stroke-width=".05" fill="#1071e5"/><path d="M771 413.9l-14.26 4.62v-9.27z" stroke="#1071e5" stroke-width="1.2" fill="#1071e5"/><path d="M985.5 413.9h65.78" stroke="#1071e5" stroke-width="1.2" fill="none"/><path d="M985.5 414.5h-.6v-1.2h.6z" stroke="#1071e5" stroke-width=".05" fill="#1071e5"/><path d="M1066.14 413.9l-14.26 4.62v-9.27z" stroke="#1071e5" stroke-width="1.2" fill="#1071e5"/><path d="M1258.38 718.05a6 6 0 0 1 6-6h177.73a6 6 0 0 1 6 6v99.8a6 6 0 0 1-6 6H1264.4a6 6 0 0 1-6-6z" stroke="#001837" stroke-width="1.2" fill="#8cb3f2" fill-opacity=".87"/><use xlink:href="#L" transform="matrix(1,0,0,1,1263.3770924640266,717.0516185476814) translate(0.9611111111111938 43.14888888888888)"/><use xlink:href="#M" transform="matrix(1,0,0,1,1263.3770924640266,717.0516185476814) translate(69.11222222222224 43.14888888888888)"/><use xlink:href="#N" transform="matrix(1,0,0,1,1263.3770924640266,717.0516185476814) translate(116.58333333333331 43.14888888888888)"/><use xlink:href="#O" transform="matrix(1,0,0,1,1263.3770924640266,717.0516185476814) translate(22.09333333333339 67.5933333333333)"/><use xlink:href="#P" transform="matrix(1,0,0,1,1263.3770924640266,717.0516185476814) translate(85.40444444444445 67.5933333333333)"/><path d="M994.86 718.05a6 6 0 0 1 6-6h177.73a6 6 0 0 1 6 6v99.8a6 6 0 0 1-6 6h-177.74a6 6 0 0 1-6-6z" stroke="#001837" stroke-width="1.2" fill="#8cb3f2" fill-opacity=".87"/><use xlink:href="#L" transform="matrix(1,0,0,1,999.8638766158721,717.0516185476814) translate(0.9611111111111938 43.14888888888888)"/><use xlink:href="#M" transform="matrix(1,0,0,1,999.8638766158721,717.0516185476814) translate(69.11222222222224 43.14888888888888)"/><use xlink:href="#N" transform="matrix(1,0,0,1,999.8638766158721,717.0516185476814) translate(116.58333333333331 43.14888888888888)"/><use xlink:href="#Q" transform="matrix(1,0,0,1,999.8638766158721,717.0516185476814) translate(19.710000000000065 67.5933333333333)"/><use xlink:href="#P" transform="matrix(1,0,0,1,999.8638766158721,717.0516185476814) translate(87.78777777777778 67.5933333333333)"/><path d="M798.18 638.7v25.9a6 6 0 0 1-6 6h-44.3a6 6 0 0 0-6 6v9.7" stroke="#3a414a" stroke-width="1.2" fill="none"/><path d="M798.78 638.72h-1.2v-.62h1.2z" stroke="#3a414a" stroke-width=".05" fill="#3a414a"/><path d="M741.9 701.16l-4.64-14.26h9.27z" stroke="#3a414a" stroke-width="1.2" fill="#3a414a"/><path d="M647.03 709.67a6 6 0 0 1 6-6h177.73a6 6 0 0 1 6 6v116.58a6 6 0 0 1-6 6H653.03a6 6 0 0 1-6-6z" stroke="#001837" stroke-width="1.2" fill="#8cb3f2" fill-opacity=".87"/><use xlink:href="#L" transform="matrix(1,0,0,1,652.0264316963086,708.6657917760278) translate(0.9611111111111938 39.96138888888888)"/><use xlink:href="#M" transform="matrix(1,0,0,1,652.0264316963086,708.6657917760278) translate(69.11222222222224 39.96138888888888)"/><use xlink:href="#N" transform="matrix(1,0,0,1,652.0264316963086,708.6657917760278) translate(116.58333333333331 39.96138888888888)"/><use xlink:href="#R" transform="matrix(1,0,0,1,652.0264316963086,708.6657917760278) translate(17.68111111111118 64.4058333333333)"/><use xlink:href="#P" transform="matrix(1,0,0,1,652.0264316963086,708.6657917760278) translate(53.748888888888914 88.85027777777773)"/><path d="M1069.83 611.66h277.4a6 6 0 0 1 6 6v77.02" stroke="#3a414a" stroke-width="1.2" fill="none"/><path d="M1069.85 612.26h-.62v-1.2h.62z" stroke="#3a414a" stroke-width=".05" fill="#3a414a"/><path d="M1353.24 709.55l-4.63-14.27h9.28z" stroke="#3a414a" stroke-width="1.2" fill="#3a414a"/><path d="M1021.2 638.65v30.12a6 6 0 0 0 6 6h43.1a6 6 0 0 1 6 6v13.92" stroke="#3a414a" stroke-width="1.2" fill="none"/><path d="M1021.8 638.66h-1.2v-.6h1.2z" stroke="#3a414a" stroke-width=".05" fill="#3a414a"/><path d="M1076.3 709.55l-4.63-14.26h9.27z" stroke="#3a414a" stroke-width="1.2" fill="#3a414a"/><path d="M351.9 718.05a6 6 0 0 1 6-6H535.6a6 6 0 0 1 6 6v99.8a6 6 0 0 1-6 6H357.9a6 6 0 0 1-6-6z" stroke="#001837" stroke-width="1.2" fill="#8cb3f2" fill-opacity=".87"/><use xlink:href="#L" transform="matrix(1,0,0,1,356.8916299463758,717.0516185476814) translate(0.9611111111111938 43.14888888888888)"/><use xlink:href="#M" transform="matrix(1,0,0,1,356.8916299463758,717.0516185476814) translate(69.11222222222224 43.14888888888888)"/><use xlink:href="#N" transform="matrix(1,0,0,1,356.8916299463758,717.0516185476814) translate(116.58333333333331 43.14888888888888)"/><use xlink:href="#S" transform="matrix(1,0,0,1,356.8916299463758,717.0516185476814) translate(9.663333333333398 67.5933333333333)"/><use xlink:href="#P" transform="matrix(1,0,0,1,356.8916299463758,717.0516185476814) translate(97.83444444444443 67.5933333333333)"/><path d="M751.3 615.83H452.75a6 6 0 0 0-6 6v72.85" stroke="#3a414a" stroke-width="1.2" fill="none"/><path d="M751.9 616.43h-.62v-1.2h.6z" stroke="#3a414a" stroke-width=".05" fill="#3a414a"/><path d="M446.76 709.55l-4.64-14.27h9.27z" stroke="#3a414a" stroke-width="1.2" fill="#3a414a"/><path d="M731.35 1146.66a6 6 0 0 1 6-6h346.38a6 6 0 0 1 6 6v99.8a6 6 0 0 1-6 6H737.35a6 6 0 0 1-6-6z" stroke="#6db1ff" stroke-width="1.2" fill="#f2f3f5"/><g><use xlink:href="#T" transform="matrix(1,0,0,1,743.3506607677181,1152.6605424321958) translate(76.13888888888896 36.89888888888888)"/><use xlink:href="#M" transform="matrix(1,0,0,1,743.3506607677181,1152.6605424321958) translate(129.94111111111113 36.89888888888888)"/><use xlink:href="#U" transform="matrix(1,0,0,1,743.3506607677181,1152.6605424321958) translate(177.41222222222223 36.89888888888888)"/><use xlink:href="#V" transform="matrix(1,0,0,1,743.3506607677181,1152.6605424321958) translate(93.88555555555561 61.343333333333305)"/></g><path d="M780.1 960.3a6 6 0 0 1 6-6h233.07a6 6 0 0 1 6 6v99.82a6 6 0 0 1-6 6H786.1a6 6 0 0 1-6-6z" stroke="#001837" stroke-width="1.2" fill="#8cb3f2" fill-opacity=".87"/><g><use xlink:href="#L" transform="matrix(1,0,0,1,792.1006056996268,966.3088363954505) translate(7.710000000000093 36.89888888888888)"/><use xlink:href="#W" transform="matrix(1,0,0,1,792.1006056996268,966.3088363954505) translate(75.86111111111114 36.89888888888888)"/><use xlink:href="#X" transform="matrix(1,0,0,1,792.1006056996268,966.3088363954505) translate(94.07222222222224 36.89888888888888)"/><use xlink:href="#Y" transform="matrix(1,0,0,1,792.1006056996268,966.3088363954505) translate(141.8122222222222 36.89888888888888)"/><use xlink:href="#Z" transform="matrix(1,0,0,1,792.1006056996268,966.3088363954505) translate(23.110000000000056 61.343333333333305)"/><use xlink:href="#aa" transform="matrix(1,0,0,1,792.1006056996268,966.3088363954505) translate(126.38777777777777 61.343333333333305)"/></g><path d="M1089.73 825.03v149.53a6 6 0 0 1-6 6h-41.2" stroke="#3a414a" stroke-width="1.2" fill="none"/><path d="M1090.33 825.04h-1.2v-.6h1.2z" stroke="#3a414a" stroke-width=".05" fill="#3a414a"/><path d="M1027.65 980.56l14.27-4.64v9.27z" stroke="#3a414a" stroke-width="1.2" fill="#3a414a"/><path d="M1353.24 825.03v189.8a6 6 0 0 1-6 6h-304.7" stroke="#3a414a" stroke-width="1.2" fill="none"/><path d="M1353.84 825.04h-1.2v-.6h1.2z" stroke="#3a414a" stroke-width=".05" fill="#3a414a"/><path d="M1027.68 1020.83l14.27-4.63v9.27z" stroke="#3a414a" stroke-width="1.2" fill="#3a414a"/><path d="M719.87 833.42v144.5a6 6 0 0 0 6 6h36.84" stroke="#3a414a" stroke-width="1.2" fill="none"/><path d="M720.47 833.44h-1.2v-.62h1.2z" stroke="#3a414a" stroke-width=".05" fill="#3a414a"/><path d="M777.58 983.9l-14.27 4.64v-9.27z" stroke="#3a414a" stroke-width="1.2" fill="#3a414a"/><path d="M446.76 825.03v188.1a6 6 0 0 0 6 6h309.98" stroke="#3a414a" stroke-width="1.2" fill="none"/><path d="M447.36 825.04h-1.2v-.6h1.2z" stroke="#3a414a" stroke-width=".05" fill="#3a414a"/><path d="M777.6 1019.14l-14.26 4.64v-9.27z" stroke="#3a414a" stroke-width="1.2" fill="#3a414a"/><path d="M902.63 1067.28v56.02" stroke="#3a414a" stroke-width="1.2" fill="none"/><path d="M903.23 1067.3h-1.2v-.62h1.2z" stroke="#3a414a" stroke-width=".05" fill="#3a414a"/><path d="M902.62 1138.16l-4.64-14.27h9.27z" stroke="#3a414a" stroke-width="1.2" fill="#3a414a"/><path d="M1154.3 825v340.66a6 6 0 0 1-6 6h-41.22" stroke="#3a414a" stroke-width="1.2" fill="none"/><path d="M1154.9 825h-1.2v-.6h1.2z" stroke="#3a414a" stroke-width=".05" fill="#3a414a"/><path d="M1092.22 1171.66l14.26-4.63v9.27z" stroke="#3a414a" stroke-width="1.2" fill="#3a414a"/><path d="M1433.08 825v392.65a6 6 0 0 1-6 6h-319.96" stroke="#3a414a" stroke-width="1.2" fill="none"/><path d="M1433.68 825h-1.2v-.6h1.2z" stroke="#3a414a" stroke-width=".05" fill="#3a414a"/><path d="M1092.25 1223.65l14.27-4.63v9.27z" stroke="#3a414a" stroke-width="1.2" fill="#3a414a"/><path d="M664.82 833.44v330.54a6 6 0 0 0 6 6h43.14" stroke="#3a414a" stroke-width="1.2" fill="none"/><path d="M665.42 833.46h-1.2v-.62h1.2z" stroke="#3a414a" stroke-width=".05" fill="#3a414a"/><path d="M728.83 1169.98l-14.27 4.64v-9.27z" stroke="#3a414a" stroke-width="1.2" fill="#3a414a"/><path d="M380.3 825.05v389.24a6 6 0 0 0 6 6H714" stroke="#3a414a" stroke-width="1.2" fill="none"/><path d="M380.9 825.07h-1.2v-.62h1.2z" stroke="#3a414a" stroke-width=".05" fill="#3a414a"/><path d="M728.86 1220.3l-14.26 4.62v-9.27z" stroke="#3a414a" stroke-width="1.2" fill="#3a414a"/><path d="M1363.78 366.35a6 6 0 0 1 6-6h367.46a6 6 0 0 1 6 6v95.08a6 6 0 0 1-6 6h-367.46a6 6 0 0 1-6-6z" stroke="#1071e5" stroke-width="1.2" fill="#dae6fe" fill-opacity=".78"/><g><use xlink:href="#ab" transform="matrix(1,0,0,1,1368.7823788032883,365.3455818022747) translate(16.43111111111125 29.898888888888873)"/><use xlink:href="#ac" transform="matrix(1,0,0,1,1368.7823788032883,365.3455818022747) translate(91.37777777777784 29.898888888888873)"/><use xlink:href="#ad" transform="matrix(1,0,0,1,1368.7823788032883,365.3455818022747) translate(152.24444444444447 29.898888888888873)"/><use xlink:href="#ae" transform="matrix(1,0,0,1,1368.7823788032883,365.3455818022747) translate(324.11333333333323 29.898888888888873)"/><use xlink:href="#C" transform="matrix(1,0,0,1,1368.7823788032883,365.3455818022747) translate(15.490000000000123 54.343333333333305)"/><use xlink:href="#af" transform="matrix(1,0,0,1,1368.7823788032883,365.3455818022747) translate(75.55000000000007 54.343333333333305)"/><use xlink:href="#ag" transform="matrix(1,0,0,1,1368.7823788032883,365.3455818022747) translate(112.58333333333337 54.343333333333305)"/><use xlink:href="#ah" transform="matrix(1,0,0,1,1368.7823788032883,365.3455818022747) translate(228.74333333333328 54.343333333333305)"/><use xlink:href="#ai" transform="matrix(1,0,0,1,1368.7823788032883,365.3455818022747) translate(54.88222222222234 78.78777777777773)"/><use xlink:href="#aj" transform="matrix(1,0,0,1,1368.7823788032883,365.3455818022747) translate(99.20000000000007 78.78777777777773)"/><use xlink:href="#ak" transform="matrix(1,0,0,1,1368.7823788032883,365.3455818022747) translate(146.67111111111114 78.78777777777773)"/><use xlink:href="#al" transform="matrix(1,0,0,1,1368.7823788032883,365.3455818022747) translate(211.59555555555553 78.78777777777773)"/></g><path d="M1553.5 468.5v31.38a6 6 0 0 1-6 6H916.55a6 6 0 0 0-6 6v15.5" stroke="#3a414a" fill="none"/><path d="M1554 468.5h-1v-.5h1z" stroke="#3a414a" stroke-width=".05" fill="#3a414a"/><path d="M910.54 542.15l-4.64-14.26h9.27z" stroke="#3a414a" fill="#3a414a"/><path d="M1280.52 413.9h66.32" stroke="#3a414a" fill="none"/><path d="M1280.53 414.4h-.5v-1h.5z" stroke="#3a414a" stroke-width=".05" fill="#3a414a"/><path d="M1361.6 413.9l-14.26 4.62v-9.27z" stroke="#3a414a" fill="#3a414a"/><path d="M288.65 662.15a6 6 0 0 1 6-6h1210.7a6 6 0 0 1 6 6v192.98a6 6 0 0 1-6 6H294.65a6 6 0 0 1-6-6z" fill-opacity="0"/><path d="M374.5 656.22h80.76m40.4 0l80.77-.02m40.38 0h80.8m40.38 0h80.77m40.4 0l80.77-.02m40.4 0h80.76m40.4 0h80.77m40.38-.02h80.78m40.4 0h80.77m40.4 0h40.38l.94.06.9.22.87.36.8.5.72.6.6.72.5.8.36.87.22.9v32.33m.02 32.32l.03 64.64m0 32.3l.02 32.33-.07.94-.22.92-.36.86-.5.8-.6.72-.72.6-.8.5-.88.36-.9.22h-40.4m-40.4 0h-80.76m-40.4 0l-80.77.02m-40.4 0h-80.76m-40.38 0h-80.78m-40.38 0l-80.78.02m-40.4 0h-80.76m-40.4 0h-80.77m-40.4.02H496.6m-40.4 0h-80.78m-40.38 0h-40.4l-.93-.06-.9-.22-.88-.36-.8-.5-.7-.6-.63-.72-.5-.8-.36-.87-.22-.93v-32.32m-.02-32.32l-.03-64.64m0-32.33l-.02-32.32.07-.94.22-.9.36-.88.5-.8.6-.72.72-.6.8-.5.87-.36.9-.22h40.4" stroke="#54c45e" stroke-width="4" fill="none"/><defs><path fill="#3a414a" d="M335-200c-76 0-139-62-139-138 0-78 62-139 141-139 74 0 136 63 136 138 0 77-62 139-138 139" id="am"/><use transform="matrix(0.024444444444444425,0,0,0.024444444444444425,0,0)" xlink:href="#am" id="a"/><path fill="#3a414a" d="M581-205c-4-82-44-67-132-74v-41h356v41c-57 1-76 18-76 68v160C603-3 521 15 425 15 201 15 47-127 47-333c0-205 163-351 391-351 52 0 143 39 233 39 14 0 24-4 31-14h27v195h-44c-28-111-110-176-221-176-152 0-256 120-256 296 0 221 179 373 373 280v-141" id="an"/><path fill="#3a414a" d="M20 0v-34c50 2 68-17 68-75v-176c6-63-27-67-68-83v-27l176-66h23v120c69-113 55-119 140-98l62 24c-12 41-33 89-51 114-26-8-58-27-88-27-20 0-40 15-63 48v161c-4 81 28 88 100 85V0H20" id="ao"/><path fill="#3a414a" d="M147-558c-47 0-83-32-83-73 0-40 40-74 88-74 46 0 83 33 83 74s-39 73-88 73zm72 439c-3 69 14 79 66 85V0H17v-34c52 3 71-15 71-75v-202c12-50-41-50-72-67v-26l183-60h20v345" id="ap"/><path fill="#3a414a" d="M383-560c4-66-26-64-72-78v-26l167-53h36v576c-4 82 24 87 76 73v32L412 11h-29v-85c-67 59-118 85-172 85C109 11 37-73 37-191c0-176 155-306 346-244v-125zM168-249c0 167 125 237 215 127v-239c-91-93-215-43-215 112" id="aq"/><g id="b"><use transform="matrix(0.024444444444444425,0,0,0.024444444444444425,0,0)" xlink:href="#an"/><use transform="matrix(0.024444444444444425,0,0,0.024444444444444425,20.288888888888874,0)" xlink:href="#ao"/><use transform="matrix(0.024444444444444425,0,0,0.024444444444444425,31.239999999999974,0)" xlink:href="#ap"/><use transform="matrix(0.024444444444444425,0,0,0.024444444444444425,38.59777777777775,0)" xlink:href="#aq"/></g><path fill="#3a414a" d="M320 15c-43 0-88-12-180-35-9 0-17 6-22 17H90L63-197h41C141-91 203-36 289-36c70 0 124-46 124-105 0-35-19-68-54-95-24-19-29-23-123-71S68-400 68-509c0-102 90-175 218-175 43 0 113 15 165 28 7 0 12-2 21-11h23l20 173h-43c-22-86-92-142-175-142-60 0-105 32-105 74 0 39 28 70 97 106 87 46 101 55 140 81 85 57 123 116 123 191C552-73 450 15 320 15" id="ar"/><path fill="#3a414a" d="M37-209c0-140 96-240 230-240 104 0 172 56 185 159 3 17 8 26 21 34v24H174c6 91 66 164 136 164 38 0 78-23 129-77l24 21C402-39 316 11 233 11 117 11 37-79 37-209zm135-57h153c-1-82-29-132-76-132-49-1-81 58-77 132" id="as"/><path fill="#3a414a" d="M251-450c91 0 175 40 175 150 0 55-2 180 4 217 10 24 27 21 49 4l16 25c-35 37-87 64-122 64-40 0-66-22-75-64-36 29-76 65-134 65C87 11 39-32 39-101c0-74 46-111 122-130 63-16 104-39 132-64 7-62-13-111-66-112-43-1-65 35-56 83L51-282c-4-17-5-25-5-36 0-85 127-132 205-132zm-83 327c0 44 22 74 54 74 18 0 32-8 73-44v-154c-20 16-28 20-69 39-43 21-58 43-58 85" id="at"/><path fill="#3a414a" d="M37-201c0-140 121-249 277-249 93 0 163 39 163 91 0 32-22 54-55 54-32 0-47-7-90-57-77-90-151-8-151 125 0 114 54 193 133 193 47 0 92-26 136-77l31 18C431-29 356 11 262 11 131 11 37-78 37-201" id="au"/><path fill="#3a414a" d="M335-34c67-8 63-15 63-101 0-92 21-234-70-234-29 0-73 17-109 40v194c0 93 7 101 67 101V0H14v-34c68 0 75-5 74-101v-437c6-46-11-51-73-72v-19l177-54h27v349c71-49 147-81 193-81 78 0 117 63 117 191v123c0 91 7 101 59 101V0H335v-34" id="av"/><g id="c"><use transform="matrix(0.024444444444444425,0,0,0.024444444444444425,0,0)" xlink:href="#ar"/><use transform="matrix(0.024444444444444425,0,0,0.024444444444444425,14.837777777777767,0)" xlink:href="#as"/><use transform="matrix(0.024444444444444425,0,0,0.024444444444444425,27.20666666666664,0)" xlink:href="#at"/><use transform="matrix(0.024444444444444425,0,0,0.024444444444444425,39.30666666666663,0)" xlink:href="#ao"/><use transform="matrix(0.024444444444444425,0,0,0.024444444444444425,49.25555555555552,0)" xlink:href="#au"/><use transform="matrix(0.024444444444444425,0,0,0.024444444444444425,61.37999999999995,0)" xlink:href="#av"/></g><path fill="#3a414a" d="M304-661c-68 0-89 54-85 144v79h107l-7 56H219v263c-4 73 36 89 115 85V0H9v-34c57 4 80-12 79-75v-273H9v-23l79-33c-1-167 141-284 279-284 69 0 168 40 131 85-15 19-30 51-56 57-11 0-11 0-47-32-40-37-63-49-91-49" id="aw"/><path fill="#3a414a" d="M37-216c0-131 118-234 269-234 148 0 254 93 254 223C560-90 445 11 288 11 141 11 37-83 37-216zm142-61c0 100 44 244 143 244 60 0 96-49 96-133 0-139-58-239-139-239-63 0-100 48-100 128" id="ax"/><g id="d"><use transform="matrix(0.024444444444444425,0,0,0.024444444444444425,0,0)" xlink:href="#aw"/><use transform="matrix(0.024444444444444425,0,0,0.024444444444444425,7.919999999999994,0)" xlink:href="#ax"/><use transform="matrix(0.024444444444444425,0,0,0.024444444444444425,22.36666666666665,0)" xlink:href="#ao"/></g><path fill="#3a414a" d="M74-22v-539c8-60-28-61-66-78v-26l163-52h34v357c62-57 127-89 179-89 97 0 173 91 173 206C557-96 441 12 285 12 236 12 137-4 74-22zm131-158c0 102 29 146 96 146 76 0 121-60 121-161 0-155-137-225-217-114v129" id="ay"/><path fill="#3a414a" d="M220 12c-28 0-77-8-111-16-6 0-12 4-22 14H57L45-126h34c24 60 61 91 112 91 47 0 73-53 39-84-14-12-13-13-80-56-78-50-104-84-104-138 0-125 169-167 287-114l2 115h-33c-20-60-56-93-102-93-28 0-49 18-49 42 0 27 20 48 78 81 68 39 75 44 97 66 23 23 36 56 36 92 0 79-60 136-142 136" id="az"/><path fill="#3a414a" d="M205 11C114 11 84-40 84-152v-233H27v-21c61-23 138-105 158-166h30v130h142l-15 57H215v242c-3 62 8 72 50 81 26 0 51-17 81-54l16 30c-33 57-97 97-157 97" id="aA"/><g id="e"><use transform="matrix(0.024444444444444425,0,0,0.024444444444444425,0,0)" xlink:href="#ay"/><use transform="matrix(0.024444444444444425,0,0,0.024444444444444425,14.519999999999989,0)" xlink:href="#as"/><use transform="matrix(0.024444444444444425,0,0,0.024444444444444425,26.888888888888868,0)" xlink:href="#az"/><use transform="matrix(0.024444444444444425,0,0,0.024444444444444425,36.544444444444416,0)" xlink:href="#aA"/></g><path fill="#3a414a" d="M121 120c61 0 99-77 120-131L95-306c-41-83-53-95-101-98v-34h274v34c-56-1-64 27-41 74l85 175 82-165c27-47 4-82-56-84v-34h200v34c-47 10-64 24-94 86L228 124c-32 65-32 65-47 85-19 26-46 41-74 41-39 0-67-26-67-61 0-43 25-69 81-69" id="aB"/><path fill="#3a414a" d="M572-247c0 135-100 258-247 258-34 0-66-4-106-13v108c0 81 19 99 106 104v34H17v-34c68-3 71-18 71-101v-421c5-49-36-52-69-64v-27l172-58h28v102c87-71 124-90 178-90 100 0 175 87 175 202zM219-80c30 32 73 52 109 52 66 0 112-65 112-158 0-109-47-183-114-183-33 0-65 17-107 55v234" id="aC"/><path fill="#3a414a" d="M219-119c-3 71 16 81 72 85V0H20v-34c50 2 68-17 68-75v-215c5-24-42-42-70-49v-27l181-61h20v123c117-83 176-111 232-111 61 0 102 41 111 111 47-38 178-111 237-111 78 0 112 56 112 184v130c1 84-3 93 60 101V0H719v-34c48-6 61-36 61-141v-64c0-91-19-129-66-129-34 0-74 18-148 67v182c-3 65 14 79 60 85V0H374v-34c95 9 61-147 61-229 0-71-21-105-65-105-39 0-81 19-151 69v180" id="aD"/><g id="f"><use transform="matrix(0.024444444444444425,0,0,0.024444444444444425,0,0)" xlink:href="#av"/><use transform="matrix(0.024444444444444425,0,0,0.024444444444444425,14.4711111111111,0)" xlink:href="#aB"/><use transform="matrix(0.024444444444444425,0,0,0.024444444444444425,28.208888888888865,0)" xlink:href="#aC"/><use transform="matrix(0.024444444444444425,0,0,0.024444444444444425,43.07111111111107,0)" xlink:href="#as"/><use transform="matrix(0.024444444444444425,0,0,0.024444444444444425,55.1955555555555,0)" xlink:href="#ao"/><use transform="matrix(0.024444444444444425,0,0,0.024444444444444425,65.48666666666661,0)" xlink:href="#aC"/><use transform="matrix(0.024444444444444425,0,0,0.024444444444444425,80.34888888888882,0)" xlink:href="#at"/><use transform="matrix(0.024444444444444425,0,0,0.024444444444444425,92.44888888888882,0)" xlink:href="#ao"/><use transform="matrix(0.024444444444444425,0,0,0.024444444444444425,102.73999999999992,0)" xlink:href="#at"/><use transform="matrix(0.024444444444444425,0,0,0.024444444444444425,114.8399999999999,0)" xlink:href="#aD"/><use transform="matrix(0.024444444444444425,0,0,0.024444444444444425,138.991111111111,0)" xlink:href="#as"/><use transform="matrix(0.024444444444444425,0,0,0.024444444444444425,151.0422222222221,0)" xlink:href="#aA"/><use transform="matrix(0.024444444444444425,0,0,0.024444444444444425,160.08666666666653,0)" xlink:href="#as"/><use transform="matrix(0.024444444444444425,0,0,0.024444444444444425,172.21111111111097,0)" xlink:href="#ao"/><use transform="matrix(0.024444444444444425,0,0,0.024444444444444425,182.50222222222206,0)" xlink:href="#az"/></g><path fill="#3a414a" d="M342-667c33 1 31-5 40-19h35l-19 124H143l-5 128c171-51 322 52 322 213C460-83 350 17 198 17 111 17 48-20 48-71c0-32 23-54 57-54 29 0 45 12 71 55 57 96 158 13 158-101 0-133-105-195-212-138l-31-17 14-341h237" id="aE"/><path fill="#3a414a" d="M39-164v-107h371v107H39" id="aF"/><path fill="#3a414a" d="M219-119c-3 67 14 79 64 85V0H17v-34c52 3 71-15 71-75v-442c8-76-34-61-74-81v-32l186-53h19v598" id="aG"/><g id="g"><use transform="matrix(0.024444444444444425,0,0,0.024444444444444425,0,0)" xlink:href="#aE"/><use transform="matrix(0.024444444444444425,0,0,0.024444444444444425,13.102222222222212,0)" xlink:href="#aF"/><use transform="matrix(0.024444444444444425,0,0,0.024444444444444425,24.028888888888872,0)" xlink:href="#aw"/><use transform="matrix(0.024444444444444425,0,0,0.024444444444444425,31.94888888888887,0)" xlink:href="#ax"/><use transform="matrix(0.024444444444444425,0,0,0.024444444444444425,46.24888888888886,0)" xlink:href="#aG"/><use transform="matrix(0.024444444444444425,0,0,0.024444444444444425,53.53333333333329,0)" xlink:href="#aq"/></g><g id="h"><use transform="matrix(0.024444444444444425,0,0,0.024444444444444425,0,0)" xlink:href="#au"/><use transform="matrix(0.024444444444444425,0,0,0.024444444444444425,12.564444444444435,0)" xlink:href="#ao"/><use transform="matrix(0.024444444444444425,0,0,0.024444444444444425,22.586666666666652,0)" xlink:href="#ax"/><use transform="matrix(0.024444444444444425,0,0,0.024444444444444425,37.15555555555553,0)" xlink:href="#az"/><use transform="matrix(0.024444444444444425,0,0,0.024444444444444425,46.98222222222219,0)" xlink:href="#az"/></g><path fill="#3a414a" d="M237 6L86-319c-30-64-45-81-91-85v-34h272v34c-28 0-67-2-61 23 0 10 4 22 15 46l91 205 83-190c24-54 16-77-63-84v-34h214v34c-58 4-68 17-106 102L303 6h-66" id="aH"/><path fill="#3a414a" d="M219-119c-3 72 16 82 74 85V0H20v-34c50 2 68-17 68-75v-215c3-22-38-42-73-49v-27l184-61h20v96c47-32 159-93 199-84 134-1 112 173 112 314 1 86-3 93 62 101V0H338v-34c48-6 61-36 61-141v-64c-1-166-79-150-180-82v202" id="aI"/><g id="i"><use transform="matrix(0.024444444444444425,0,0,0.024444444444444425,0,0)" xlink:href="#aH"/><use transform="matrix(0.024444444444444425,0,0,0.024444444444444425,13.248888888888878,0)" xlink:href="#at"/><use transform="matrix(0.024444444444444425,0,0,0.024444444444444425,25.34888888888887,0)" xlink:href="#aG"/><use transform="matrix(0.024444444444444425,0,0,0.024444444444444425,32.75555555555553,0)" xlink:href="#ap"/><use transform="matrix(0.024444444444444425,0,0,0.024444444444444425,40.1133333333333,0)" xlink:href="#aq"/><use transform="matrix(0.024444444444444425,0,0,0.024444444444444425,54.87777777777774,0)" xlink:href="#at"/><use transform="matrix(0.024444444444444425,0,0,0.024444444444444425,66.80666666666662,0)" xlink:href="#aA"/><use transform="matrix(0.024444444444444425,0,0,0.024444444444444425,75.85111111111105,0)" xlink:href="#ap"/><use transform="matrix(0.024444444444444425,0,0,0.024444444444444425,83.0377777777777,0)" xlink:href="#ax"/><use transform="matrix(0.024444444444444425,0,0,0.024444444444444425,97.48444444444436,0)" xlink:href="#aI"/></g><path fill="#3a414a" d="M272-136c-6 97 40 92 126 94V0H33v-42c78-4 91 0 91-87v-409c6-91-19-83-99-87v-42c124-8 304-17 345-17 163 0 294 69 295 210 0 124-105 204-269 204-41 0-80-4-124-11v145zm0-189c130 29 232-21 232-154 0-132-105-186-232-151v305" id="aJ"/><g id="j"><use transform="matrix(0.024444444444444425,0,0,0.024444444444444425,0,0)" xlink:href="#aJ"/><use transform="matrix(0.024444444444444425,0,0,0.024444444444444425,16.964444444444432,0)" xlink:href="#ao"/><use transform="matrix(0.024444444444444425,0,0,0.024444444444444425,27.035555555555533,0)" xlink:href="#as"/><use transform="matrix(0.024444444444444425,0,0,0.024444444444444425,39.13555555555553,0)" xlink:href="#aC"/><use transform="matrix(0.024444444444444425,0,0,0.024444444444444425,53.997777777777735,0)" xlink:href="#ao"/><use transform="matrix(0.024444444444444425,0,0,0.024444444444444425,64.01999999999995,0)" xlink:href="#ax"/><use transform="matrix(0.024444444444444425,0,0,0.024444444444444425,78.58888888888883,0)" xlink:href="#au"/><use transform="matrix(0.024444444444444425,0,0,0.024444444444444425,91.15333333333326,0)" xlink:href="#as"/><use transform="matrix(0.024444444444444425,0,0,0.024444444444444425,103.52222222222214,0)" xlink:href="#az"/><use transform="matrix(0.024444444444444425,0,0,0.024444444444444425,113.3488888888888,0)" xlink:href="#az"/><use transform="matrix(0.024444444444444425,0,0,0.024444444444444425,123.17555555555546,0)" xlink:href="#as"/><use transform="matrix(0.024444444444444425,0,0,0.024444444444444425,135.54444444444434,0)" xlink:href="#aq"/></g><path fill="#3a414a" d="M304-55c133 0 255 22 255 124S428 248 255 248c-123 0-218-46-218-107 0-31 19-51 67-72 21-9 28-15 37-30C54 15 6-85 103-123c15-6 30-11 92-30-74-4-140-67-140-132 0-93 95-164 219-164 58 0 106 14 144 42l152-39v111l-108-25c79 126-69 231-204 219-73 25-89 34-89 51 0 22 48 35 135 35zm-31-129c50 0 78-34 78-96 0-77-32-125-84-125-50 0-80 38-80 101 0 78 30 120 86 120zM192 50c-96 65-3 152 117 152 87 0 154-39 154-90 0-39-31-58-106-55-53 3-130 4-165-7" id="aK"/><g id="k"><use transform="matrix(0.024444444444444425,0,0,0.024444444444444425,0,0)" xlink:href="#ar"/><use transform="matrix(0.024444444444444425,0,0,0.024444444444444425,14.739999999999988,0)" xlink:href="#ap"/><use transform="matrix(0.024444444444444425,0,0,0.024444444444444425,21.926666666666648,0)" xlink:href="#aK"/><use transform="matrix(0.024444444444444425,0,0,0.024444444444444425,36.05555555555553,0)" xlink:href="#aI"/><use transform="matrix(0.024444444444444425,0,0,0.024444444444444425,50.966666666666626,0)" xlink:href="#at"/><use transform="matrix(0.024444444444444425,0,0,0.024444444444444425,63.06666666666661,0)" xlink:href="#aG"/><use transform="matrix(0.024444444444444425,0,0,0.024444444444444425,70.47333333333329,0)" xlink:href="#az"/></g><g id="l"><use transform="matrix(0.024444444444444425,0,0,0.024444444444444425,0,0)" xlink:href="#ax"/><use transform="matrix(0.024444444444444425,0,0,0.024444444444444425,14.42222222222221,0)" xlink:href="#aw"/></g><use transform="matrix(0.024444444444444425,0,0,0.024444444444444425,0,0)" xlink:href="#aE" id="m"/><path fill="#3a414a" d="M88-152v-163c4-56-16-55-45-71v-24l154-39h22v235c0 71 3 95 17 115 12 19 31 29 53 29 25 0 62-15 108-44v-194c9-66-47-60-88-77v-25l219-39v328c-4 73 21 71 63 58v33L418 11h-21v-85c-96 61-150 85-193 85-76 0-116-57-116-163" id="aL"/><path fill="#3a414a" d="M147-558c-47 0-83-32-83-73 0-40 40-74 88-74 46 0 83 33 83 74s-39 73-88 73zm71 517c10 184-85 287-234 287-70 0-111-24-111-64 0-33 33-64 68-64 26 0 42 10 70 50 27 38 64 26 71-22 16-116 3-327 5-461 11-45-42-46-72-61v-26l181-61h22v422" id="aM"/><g id="n"><use transform="matrix(0.024444444444444425,0,0,0.024444444444444425,0,0)" xlink:href="#az"/><use transform="matrix(0.024444444444444425,0,0,0.024444444444444425,9.826666666666659,0)" xlink:href="#aL"/><use transform="matrix(0.024444444444444425,0,0,0.024444444444444425,24.59111111111109,0)" xlink:href="#ay"/><use transform="matrix(0.024444444444444425,0,0,0.024444444444444425,39.11111111111108,0)" xlink:href="#aM"/><use transform="matrix(0.024444444444444425,0,0,0.024444444444444425,46.29777777777774,0)" xlink:href="#as"/><use transform="matrix(0.024444444444444425,0,0,0.024444444444444425,58.66666666666662,0)" xlink:href="#au"/><use transform="matrix(0.024444444444444425,0,0,0.024444444444444425,71.23111111111105,0)" xlink:href="#aA"/><use transform="matrix(0.024444444444444425,0,0,0.024444444444444425,80.27555555555548,0)" xlink:href="#az"/></g><path fill="#3a414a" d="M472-136c-5 94 34 91 119 94V0H205v-42c85-2 119-1 119-94v-476H212c-96 0-108 12-129 127H39l18-200h35c19 18 19 18 78 18h481c36 0 44-3 55-18h33l19 200h-42c-23-114-35-127-117-127H472v476" id="aN"/><g id="o"><use transform="matrix(0.024444444444444425,0,0,0.024444444444444425,0,0)" xlink:href="#aN"/><use transform="matrix(0.024444444444444425,0,0,0.024444444444444425,17.551111111111098,0)" xlink:href="#ao"/><use transform="matrix(0.024444444444444425,0,0,0.024444444444444425,27.8422222222222,0)" xlink:href="#at"/><use transform="matrix(0.024444444444444425,0,0,0.024444444444444425,39.94222222222219,0)" xlink:href="#aI"/><use transform="matrix(0.024444444444444425,0,0,0.024444444444444425,54.95111111111107,0)" xlink:href="#az"/><use transform="matrix(0.024444444444444425,0,0,0.024444444444444425,64.65555555555551,0)" xlink:href="#aC"/><use transform="matrix(0.024444444444444425,0,0,0.024444444444444425,79.51777777777772,0)" xlink:href="#ax"/><use transform="matrix(0.024444444444444425,0,0,0.024444444444444425,94.0866666666666,0)" xlink:href="#az"/><use transform="matrix(0.024444444444444425,0,0,0.024444444444444425,103.91333333333326,0)" xlink:href="#ap"/><use transform="matrix(0.024444444444444425,0,0,0.024444444444444425,111.41777777777772,0)" xlink:href="#aI"/><use transform="matrix(0.024444444444444425,0,0,0.024444444444444425,126.10888888888881,0)" xlink:href="#aK"/></g><g id="p"><use transform="matrix(0.024444444444444425,0,0,0.024444444444444425,0,0)" xlink:href="#aA"/><use transform="matrix(0.024444444444444425,0,0,0.024444444444444425,9.044444444444437,0)" xlink:href="#av"/><use transform="matrix(0.024444444444444425,0,0,0.024444444444444425,23.833333333333314,0)" xlink:href="#as"/></g><g id="q"><use transform="matrix(0.024444444444444425,0,0,0.024444444444444425,0,0)" xlink:href="#aw"/><use transform="matrix(0.024444444444444425,0,0,0.024444444444444425,8.06666666666666,0)" xlink:href="#as"/><use transform="matrix(0.024444444444444425,0,0,0.024444444444444425,20.43555555555554,0)" xlink:href="#at"/><use transform="matrix(0.024444444444444425,0,0,0.024444444444444425,32.364444444444416,0)" xlink:href="#aA"/><use transform="matrix(0.024444444444444425,0,0,0.024444444444444425,41.40888888888885,0)" xlink:href="#aL"/><use transform="matrix(0.024444444444444425,0,0,0.024444444444444425,56.3444444444444,0)" xlink:href="#ao"/><use transform="matrix(0.024444444444444425,0,0,0.024444444444444425,66.4155555555555,0)" xlink:href="#as"/><use transform="matrix(0.024444444444444425,0,0,0.024444444444444425,78.78444444444438,0)" xlink:href="#az"/></g><g id="r"><use transform="matrix(0.024444444444444425,0,0,0.024444444444444425,0,0)" xlink:href="#aA"/><use transform="matrix(0.024444444444444425,0,0,0.024444444444444425,8.971111111111103,0)" xlink:href="#ax"/></g><path fill="#3a414a" d="M72-238c0-167 123-358 233-445h45C247-559 203-426 203-231c0 189 44 325 144 443h-45c-61-55-96-92-126-134C110-12 72-127 72-238" id="aO"/><path fill="#3a414a" d="M34 0v-38c63-65 177-193 214-240 47-61 70-119 70-179 0-85-41-138-108-138-59 0-110 49-124 119H45c17-124 103-208 214-208 108 0 188 81 188 190 0 86-30 135-153 246-64 59-108 104-134 136h186c66 0 81-13 93-82h35L453 0H34" id="aP"/><path fill="#3a414a" d="M265 16C162 17 49-55 50-163c0-71 42-122 130-158-65-44-119-97-119-181 0-103 89-182 205-182 112 0 205 73 205 161 0 64-39 110-126 149 95 50 142 112 142 190C487-74 387 16 265 16zm47-413c36-26 55-70 55-124 0-77-39-123-104-123-58 0-97 37-97 93 0 58 41 101 146 154zM162-167c0 90 40 143 109 143 64 0 109-45 109-108 0-44-16-72-55-102-16-12-41-26-106-64-42 34-57 70-57 131" id="aQ"/><path fill="#3a414a" d="M46-336c0-169 63-348 223-348 134 0 222 140 222 355 0 203-91 345-222 345C139 16 46-130 46-336zm142 204c6 69 35 108 82 108 40 0 66-28 77-83 12-64 3-413 0-447-9-98-131-125-153-25-18 35-9 445-6 447" id="aR"/><path fill="#3a414a" d="M22 0v-34c68-2 153-117 203-163L102-346c-35-43-54-54-88-58v-34h263v34c-35-1-44 15-29 34l67 83c23-30 61-52 73-92 0-16-14-24-46-25v-34h200v34c-66-4-152 105-200 153l119 144c43 52 68 73 104 73V0H289v-34c47 4 52-20 26-52l-61-76-68 73c-25 25-24 57 27 55V0H22" id="aS"/><path fill="#3a414a" d="M115 0v-35c46-5 102 14 102-45v-469c-22 17-92 48-126 57l-15-33c81-38 160-97 213-159h61v599c-6 65 57 45 107 50V0H115" id="aT"/><path fill="#3a414a" d="M51-265c0-211 144-376 366-419l21 33c-126 42-215 146-234 275 127-96 292-5 292 166 0 133-88 226-213 226C144 16 51-97 51-265zm144-63c-4 28-7 64-7 102 0 135 30 203 90 203 76 0 84-76 83-173-1-104-5-168-82-168-28 0-50 10-84 36" id="aU"/><path fill="#3a414a" d="M60-683c109 85 234 271 234 445 0 120-43 242-120 337-27 33-58 65-111 113H18C118 95 163-42 163-233c0-192-45-329-148-450h45" id="aV"/><g id="s"><use transform="matrix(0.024444444444444425,0,0,0.024444444444444425,0,0)" xlink:href="#aO"/><use transform="matrix(0.024444444444444425,0,0,0.024444444444444425,9.28888888888888,0)" xlink:href="#aP"/><use transform="matrix(0.024444444444444425,0,0,0.024444444444444425,22.391111111111094,0)" xlink:href="#aQ"/><use transform="matrix(0.024444444444444425,0,0,0.024444444444444425,35.493333333333304,0)" xlink:href="#aR"/><use transform="matrix(0.024444444444444425,0,0,0.024444444444444425,48.595555555555514,0)" xlink:href="#aS"/><use transform="matrix(0.024444444444444425,0,0,0.024444444444444425,62.52888888888884,0)" xlink:href="#aP"/><use transform="matrix(0.024444444444444425,0,0,0.024444444444444425,75.63111111111105,0)" xlink:href="#aR"/><use transform="matrix(0.024444444444444425,0,0,0.024444444444444425,88.04888888888883,0)" xlink:href="#aT"/><use transform="matrix(0.024444444444444425,0,0,0.024444444444444425,101.15111111111104,0)" xlink:href="#aS"/><use transform="matrix(0.024444444444444425,0,0,0.024444444444444425,115.08444444444436,0)" xlink:href="#aU"/><use transform="matrix(0.024444444444444425,0,0,0.024444444444444425,128.18666666666658,0)" xlink:href="#aV"/></g><g id="t"><use transform="matrix(0.024444444444444425,0,0,0.024444444444444425,0,0)" xlink:href="#ar"/><use transform="matrix(0.024444444444444425,0,0,0.024444444444444425,14.617777777777766,0)" xlink:href="#aC"/><use transform="matrix(0.024444444444444425,0,0,0.024444444444444425,29.284444444444414,0)" xlink:href="#aG"/><use transform="matrix(0.024444444444444425,0,0,0.024444444444444425,36.69111111111108,0)" xlink:href="#ap"/><use transform="matrix(0.024444444444444425,0,0,0.024444444444444425,44.195555555555515,0)" xlink:href="#aA"/></g><g id="u"><use transform="matrix(0.024444444444444425,0,0,0.024444444444444425,0,0)" xlink:href="#aA"/><use transform="matrix(0.024444444444444425,0,0,0.024444444444444425,9.044444444444437,0)" xlink:href="#av"/><use transform="matrix(0.024444444444444425,0,0,0.024444444444444425,23.833333333333314,0)" xlink:href="#as"/></g><g id="v"><use transform="matrix(0.024444444444444425,0,0,0.024444444444444425,0,0)" xlink:href="#aq"/><use transform="matrix(0.024444444444444425,0,0,0.024444444444444425,14.764444444444432,0)" xlink:href="#at"/><use transform="matrix(0.024444444444444425,0,0,0.024444444444444425,26.69333333333331,0)" xlink:href="#aA"/><use transform="matrix(0.024444444444444425,0,0,0.024444444444444425,36.03111111111109,0)" xlink:href="#at"/></g><g id="w"><use transform="matrix(0.024444444444444425,0,0,0.024444444444444425,0,0)" xlink:href="#ap"/><use transform="matrix(0.024444444444444425,0,0,0.024444444444444425,7.504444444444438,0)" xlink:href="#aI"/><use transform="matrix(0.024444444444444425,0,0,0.024444444444444425,22.17111111111109,0)" xlink:href="#aA"/><use transform="matrix(0.024444444444444425,0,0,0.024444444444444425,31.1422222222222,0)" xlink:href="#ax"/></g><path fill="#3a414a" d="M6 258l240-985h94L100 258H6" id="aW"/><g id="x"><use transform="matrix(0.024444444444444425,0,0,0.024444444444444425,0,0)" xlink:href="#aA"/><use transform="matrix(0.024444444444444425,0,0,0.024444444444444425,9.044444444444437,0)" xlink:href="#ao"/><use transform="matrix(0.024444444444444425,0,0,0.024444444444444425,19.33555555555554,0)" xlink:href="#at"/><use transform="matrix(0.024444444444444425,0,0,0.024444444444444425,31.43555555555553,0)" xlink:href="#ap"/><use transform="matrix(0.024444444444444425,0,0,0.024444444444444425,38.93999999999997,0)" xlink:href="#aI"/><use transform="matrix(0.024444444444444425,0,0,0.024444444444444425,53.948888888888845,0)" xlink:href="#ap"/><use transform="matrix(0.024444444444444425,0,0,0.024444444444444425,61.45333333333328,0)" xlink:href="#aI"/><use transform="matrix(0.024444444444444425,0,0,0.024444444444444425,76.14444444444439,0)" xlink:href="#aK"/><use transform="matrix(0.024444444444444425,0,0,0.024444444444444425,90.27333333333327,0)" xlink:href="#aW"/></g><g id="y"><use transform="matrix(0.024444444444444425,0,0,0.024444444444444425,0,0)" xlink:href="#aA"/><use transform="matrix(0.024444444444444425,0,0,0.024444444444444425,9.044444444444437,0)" xlink:href="#as"/><use transform="matrix(0.024444444444444425,0,0,0.024444444444444425,21.413333333333316,0)" xlink:href="#az"/><use transform="matrix(0.024444444444444425,0,0,0.024444444444444425,31.068888888888864,0)" xlink:href="#aA"/></g><g id="z"><use transform="matrix(0.024444444444444425,0,0,0.024444444444444425,0,0)" xlink:href="#az"/><use transform="matrix(0.024444444444444425,0,0,0.024444444444444425,9.826666666666659,0)" xlink:href="#as"/><use transform="matrix(0.024444444444444425,0,0,0.024444444444444425,21.87777777777776,0)" xlink:href="#aA"/><use transform="matrix(0.024444444444444425,0,0,0.024444444444444425,30.922222222222196,0)" xlink:href="#az"/></g><path fill="#3a414a" d="M684 3c-67-26-160 12-248 12C218 15 47-137 47-332c0-197 181-352 412-352 66 0 139 25 205 45 9 0 15-3 21-11h27l10 188h-43c-33-107-110-167-213-167-153 0-259 116-259 285 0 173 118 306 272 306 98 0 180-56 223-154h43c-7 48-37 146-61 195" id="aX"/><g id="A"><use transform="matrix(0.024444444444444425,0,0,0.024444444444444425,0,0)" xlink:href="#aX"/><use transform="matrix(0.024444444444444425,0,0,0.024444444444444425,19.188888888888872,0)" xlink:href="#ax"/><use transform="matrix(0.024444444444444425,0,0,0.024444444444444425,33.65999999999997,0)" xlink:href="#aD"/><use transform="matrix(0.024444444444444425,0,0,0.024444444444444425,57.98222222222216,0)" xlink:href="#ay"/><use transform="matrix(0.024444444444444425,0,0,0.024444444444444425,72.42888888888882,0)" xlink:href="#ap"/><use transform="matrix(0.024444444444444425,0,0,0.024444444444444425,79.93333333333325,0)" xlink:href="#aI"/><use transform="matrix(0.024444444444444425,0,0,0.024444444444444425,94.94222222222213,0)" xlink:href="#ap"/><use transform="matrix(0.024444444444444425,0,0,0.024444444444444425,102.44666666666656,0)" xlink:href="#aI"/><use transform="matrix(0.024444444444444425,0,0,0.024444444444444425,117.13777777777766,0)" xlink:href="#aK"/></g><g id="B"><use transform="matrix(0.024444444444444425,0,0,0.024444444444444425,0,0)" xlink:href="#at"/><use transform="matrix(0.024444444444444425,0,0,0.024444444444444425,12.09999999999999,0)" xlink:href="#aG"/><use transform="matrix(0.024444444444444425,0,0,0.024444444444444425,19.506666666666653,0)" xlink:href="#aG"/></g><g id="C"><use transform="matrix(0.024444444444444425,0,0,0.024444444444444425,0,0)" xlink:href="#aA"/><use transform="matrix(0.024444444444444425,0,0,0.024444444444444425,9.044444444444437,0)" xlink:href="#ao"/><use transform="matrix(0.024444444444444425,0,0,0.024444444444444425,19.33555555555554,0)" xlink:href="#at"/><use transform="matrix(0.024444444444444425,0,0,0.024444444444444425,31.43555555555553,0)" xlink:href="#ap"/><use transform="matrix(0.024444444444444425,0,0,0.024444444444444425,38.93999999999997,0)" xlink:href="#aI"/></g><g id="D"><use transform="matrix(0.024444444444444425,0,0,0.024444444444444425,0,0)" xlink:href="#az"/><use transform="matrix(0.024444444444444425,0,0,0.024444444444444425,9.826666666666659,0)" xlink:href="#as"/><use transform="matrix(0.024444444444444425,0,0,0.024444444444444425,21.87777777777776,0)" xlink:href="#aA"/><use transform="matrix(0.024444444444444425,0,0,0.024444444444444425,30.922222222222196,0)" xlink:href="#az"/></g><g id="E"><use transform="matrix(0.024444444444444425,0,0,0.024444444444444425,0,0)" xlink:href="#at"/><use transform="matrix(0.024444444444444425,0,0,0.024444444444444425,12.09999999999999,0)" xlink:href="#aI"/><use transform="matrix(0.024444444444444425,0,0,0.024444444444444425,26.88888888888886,0)" xlink:href="#aq"/></g><g id="F"><use transform="matrix(0.024444444444444425,0,0,0.024444444444444425,0,0)" xlink:href="#at"/><use transform="matrix(0.024444444444444425,0,0,0.024444444444444425,12.09999999999999,0)" xlink:href="#aC"/><use transform="matrix(0.024444444444444425,0,0,0.024444444444444425,26.815555555555534,0)" xlink:href="#aC"/><use transform="matrix(0.024444444444444425,0,0,0.024444444444444425,41.48222222222219,0)" xlink:href="#aG"/><use transform="matrix(0.024444444444444425,0,0,0.024444444444444425,48.81555555555552,0)" xlink:href="#aB"/></g><g id="G"><use transform="matrix(0.024444444444444425,0,0,0.024444444444444425,0,0)" xlink:href="#ax"/><use transform="matrix(0.024444444444444425,0,0,0.024444444444444425,14.446666666666655,0)" xlink:href="#aI"/><use transform="matrix(0.024444444444444425,0,0,0.024444444444444425,29.235555555555525,0)" xlink:href="#as"/></g><g id="H"><use transform="matrix(0.024444444444444425,0,0,0.024444444444444425,0,0)" xlink:href="#av"/><use transform="matrix(0.024444444444444425,0,0,0.024444444444444425,14.715555555555543,0)" xlink:href="#ax"/><use transform="matrix(0.024444444444444425,0,0,0.024444444444444425,29.088888888888867,0)" xlink:href="#aA"/></g><g id="I"><use transform="matrix(0.024444444444444425,0,0,0.024444444444444425,0,0)" xlink:href="#as"/><use transform="matrix(0.024444444444444425,0,0,0.024444444444444425,12.197777777777768,0)" xlink:href="#aI"/><use transform="matrix(0.024444444444444425,0,0,0.024444444444444425,26.88888888888886,0)" xlink:href="#au"/><use transform="matrix(0.024444444444444425,0,0,0.024444444444444425,39.4533333333333,0)" xlink:href="#ax"/><use transform="matrix(0.024444444444444425,0,0,0.024444444444444425,54.022222222222176,0)" xlink:href="#aq"/><use transform="matrix(0.024444444444444425,0,0,0.024444444444444425,68.49333333333328,0)" xlink:href="#ap"/><use transform="matrix(0.024444444444444425,0,0,0.024444444444444425,75.99777777777771,0)" xlink:href="#aI"/><use transform="matrix(0.024444444444444425,0,0,0.024444444444444425,90.68888888888881,0)" xlink:href="#aK"/></g><path fill="#3a414a" d="M123-531c1-86-22-90-99-94v-42c190-15 435-31 582 14 136 41 222 158 222 302 0 135-84 258-204 310C489 18 223-6 23 0v-42c78-3 100-9 100-94v-395zm545 196c2-216-154-328-397-292v502c0 73 11 83 91 83 191 0 305-111 306-293" id="aY"/><g id="J"><use transform="matrix(0.024444444444444425,0,0,0.024444444444444425,0,0)" xlink:href="#aY"/><use transform="matrix(0.024444444444444425,0,0,0.024444444444444425,21.38888888888887,0)" xlink:href="#as"/><use transform="matrix(0.024444444444444425,0,0,0.024444444444444425,33.75777777777775,0)" xlink:href="#as"/><use transform="matrix(0.024444444444444425,0,0,0.024444444444444425,45.85777777777774,0)" xlink:href="#aC"/><use transform="matrix(0.024444444444444425,0,0,0.024444444444444425,60.71999999999995,0)" xlink:href="#aF"/><use transform="matrix(0.024444444444444425,0,0,0.024444444444444425,71.6466666666666,0)" xlink:href="#aG"/><use transform="matrix(0.024444444444444425,0,0,0.024444444444444425,78.93111111111105,0)" xlink:href="#as"/><use transform="matrix(0.024444444444444425,0,0,0.024444444444444425,91.29999999999993,0)" xlink:href="#at"/><use transform="matrix(0.024444444444444425,0,0,0.024444444444444425,103.39999999999992,0)" xlink:href="#ao"/><use transform="matrix(0.024444444444444425,0,0,0.024444444444444425,114.35111111111102,0)" xlink:href="#aI"/><use transform="matrix(0.024444444444444425,0,0,0.024444444444444425,129.3599999999999,0)" xlink:href="#ap"/><use transform="matrix(0.024444444444444425,0,0,0.024444444444444425,136.86444444444433,0)" xlink:href="#aI"/><use transform="matrix(0.024444444444444425,0,0,0.024444444444444425,151.55555555555543,0)" xlink:href="#aK"/></g><path fill="#3a414a" d="M21 0v-42c76-1 85-14 91-113 8-138 25-275 25-414 0-39-18-53-72-56v-42h226l209 451 200-451h231v42c-74 0-82 15-78 82l26 395c6 94 11 99 95 106V0H636v-42c96 8 104-27 98-120l-25-381L468 0h-26L196-530c-8 139-20 275-26 416-2 55 21 72 89 72V0H21" id="aZ"/><g id="K"><use transform="matrix(0.024444444444444425,0,0,0.024444444444444425,0,0)" xlink:href="#aZ"/><use transform="matrix(0.024444444444444425,0,0,0.024444444444444425,23.97999999999998,0)" xlink:href="#ax"/><use transform="matrix(0.024444444444444425,0,0,0.024444444444444425,38.548888888888854,0)" xlink:href="#aq"/><use transform="matrix(0.024444444444444425,0,0,0.024444444444444425,52.94666666666662,0)" xlink:href="#as"/><use transform="matrix(0.024444444444444425,0,0,0.024444444444444425,64.99777777777773,0)" xlink:href="#aG"/><use transform="matrix(0.024444444444444425,0,0,0.024444444444444425,72.4044444444444,0)" xlink:href="#az"/></g><path fill="#3a414a" d="M692-201C692-72 557 0 383 0H0v-42c93 1 130-22 130-90v-399c7-94-31-95-120-94v-42c183-15 224-17 306-17 178 0 338 36 338 174 0 66-43 107-132 126 103 24 170 96 170 183zM497-514c5-105-101-144-219-126v239c24 2 44 3 61 3 111 3 154-29 158-116zM278-155c-1 89 19 102 97 107 100 6 151-59 151-148 0-113-58-167-200-160-17 0-30 0-48 1v200" id="ba"/><g id="L"><use transform="matrix(0.024444444444444425,0,0,0.024444444444444425,0,0)" xlink:href="#ba"/><use transform="matrix(0.024444444444444425,0,0,0.024444444444444425,17.844444444444427,0)" xlink:href="#aL"/><use transform="matrix(0.024444444444444425,0,0,0.024444444444444425,32.77999999999997,0)" xlink:href="#ap"/><use transform="matrix(0.024444444444444425,0,0,0.024444444444444425,40.28444444444441,0)" xlink:href="#aG"/><use transform="matrix(0.024444444444444425,0,0,0.024444444444444425,47.56888888888885,0)" xlink:href="#aq"/></g><g id="M"><use transform="matrix(0.024444444444444425,0,0,0.024444444444444425,0,0)" xlink:href="#at"/><use transform="matrix(0.024444444444444425,0,0,0.024444444444444425,12.09999999999999,0)" xlink:href="#aI"/><use transform="matrix(0.024444444444444425,0,0,0.024444444444444425,26.88888888888886,0)" xlink:href="#aq"/></g><g id="N"><use transform="matrix(0.024444444444444425,0,0,0.024444444444444425,0,0)" xlink:href="#aN"/><use transform="matrix(0.024444444444444425,0,0,0.024444444444444425,17.551111111111098,0)" xlink:href="#ao"/><use transform="matrix(0.024444444444444425,0,0,0.024444444444444425,27.8422222222222,0)" xlink:href="#at"/><use transform="matrix(0.024444444444444425,0,0,0.024444444444444425,39.94222222222219,0)" xlink:href="#ap"/><use transform="matrix(0.024444444444444425,0,0,0.024444444444444425,47.44666666666663,0)" xlink:href="#aI"/></g><path fill="#3a414a" d="M382-625c-82 2-111 4-111 94v401c0 65 5 71 55 71 76 0 185 11 219-29 19-23 58-64 82-98h43L592 0H16v-42c80-3 107-6 107-94v-395c2-88-25-91-105-94v-42h364v42" id="bb"/><g id="O"><use transform="matrix(0.024444444444444425,0,0,0.024444444444444425,0,0)" xlink:href="#aZ"/><use transform="matrix(0.024444444444444425,0,0,0.024444444444444425,24.3222222222222,0)" xlink:href="#bb"/><use transform="matrix(0.024444444444444425,0,0,0.024444444444444425,40.23555555555552,0)" xlink:href="#aJ"/></g><g id="P"><use transform="matrix(0.024444444444444425,0,0,0.024444444444444425,0,0)" xlink:href="#aD"/><use transform="matrix(0.024444444444444425,0,0,0.024444444444444425,24.077777777777758,0)" xlink:href="#ax"/><use transform="matrix(0.024444444444444425,0,0,0.024444444444444425,38.64666666666663,0)" xlink:href="#aq"/><use transform="matrix(0.024444444444444425,0,0,0.024444444444444425,53.0444444444444,0)" xlink:href="#as"/><use transform="matrix(0.024444444444444425,0,0,0.024444444444444425,65.0955555555555,0)" xlink:href="#aG"/></g><path fill="#3a414a" d="M188-138c-1 87 28 92 106 96V0H35v-42c66-6 88-7 88-88v-472c-20-14-54-23-86-23v-42h221l438 456v-323c3-82-24-92-113-91v-42h277v42c-78 10-99-10-99 85V4h-58L188-534v396" id="bc"/><g id="Q"><use transform="matrix(0.024444444444444425,0,0,0.024444444444444425,0,0)" xlink:href="#aX"/><use transform="matrix(0.024444444444444425,0,0,0.024444444444444425,19.188888888888872,0)" xlink:href="#bc"/><use transform="matrix(0.024444444444444425,0,0,0.024444444444444425,40.57777777777774,0)" xlink:href="#bc"/></g><g id="R"><use transform="matrix(0.024444444444444425,0,0,0.024444444444444425,0,0)" xlink:href="#aN"/><use transform="matrix(0.024444444444444425,0,0,0.024444444444444425,17.551111111111098,0)" xlink:href="#ao"/><use transform="matrix(0.024444444444444425,0,0,0.024444444444444425,27.8422222222222,0)" xlink:href="#at"/><use transform="matrix(0.024444444444444425,0,0,0.024444444444444425,39.94222222222219,0)" xlink:href="#aI"/><use transform="matrix(0.024444444444444425,0,0,0.024444444444444425,54.95111111111107,0)" xlink:href="#az"/><use transform="matrix(0.024444444444444425,0,0,0.024444444444444425,64.77777777777773,0)" xlink:href="#aw"/><use transform="matrix(0.024444444444444425,0,0,0.024444444444444425,72.69777777777772,0)" xlink:href="#ax"/><use transform="matrix(0.024444444444444425,0,0,0.024444444444444425,87.14444444444437,0)" xlink:href="#ao"/><use transform="matrix(0.024444444444444425,0,0,0.024444444444444425,98.07111111111104,0)" xlink:href="#aD"/><use transform="matrix(0.024444444444444425,0,0,0.024444444444444425,122.22222222222213,0)" xlink:href="#as"/><use transform="matrix(0.024444444444444425,0,0,0.024444444444444425,134.34666666666655,0)" xlink:href="#ao"/></g><path fill="#3a414a" d="M271-136c-1 86 22 89 98 94V0H25v-42c77-4 98-10 98-94v-395c1-85-21-90-98-94v-42h344v42c-77 4-98 10-98 94v157h354v-157c2-84-22-89-96-94v-42h343v42c-77 4-99 9-99 94v395c-1 86 23 90 99 94V0H529v-42c75-5 96-10 96-94v-175H271v175" id="bd"/><g id="S"><use transform="matrix(0.024444444444444425,0,0,0.024444444444444425,0,0)" xlink:href="#bd"/><use transform="matrix(0.024444444444444425,0,0,0.024444444444444425,21.486666666666647,0)" xlink:href="#aB"/><use transform="matrix(0.024444444444444425,0,0,0.024444444444444425,34.75999999999997,0)" xlink:href="#ay"/><use transform="matrix(0.024444444444444425,0,0,0.024444444444444425,49.27999999999996,0)" xlink:href="#ao"/><use transform="matrix(0.024444444444444425,0,0,0.024444444444444425,60.23111111111106,0)" xlink:href="#ap"/><use transform="matrix(0.024444444444444425,0,0,0.024444444444444425,67.58888888888883,0)" xlink:href="#aq"/></g><g id="T"><use transform="matrix(0.024444444444444425,0,0,0.024444444444444425,0,0)" xlink:href="#aN"/><use transform="matrix(0.024444444444444425,0,0,0.024444444444444425,16.62222222222221,0)" xlink:href="#as"/><use transform="matrix(0.024444444444444425,0,0,0.024444444444444425,28.99111111111109,0)" xlink:href="#az"/><use transform="matrix(0.024444444444444425,0,0,0.024444444444444425,38.64666666666664,0)" xlink:href="#aA"/></g><path fill="#3a414a" d="M271-136c-4 93 33 91 117 94V0H13v-42c82-2 110-5 110-94v-395c3-89-27-91-108-94v-42c130-11 242-17 316-17 192 0 347 40 347 196 0 82-60 147-159 174 36 30 54 56 120 144C721-60 761-37 846-31v42c-94 4-195-1-243-25-49-24-65-39-158-166-35-49-59-77-89-104h-85v148zm0-189c159 5 246-40 246-157 0-121-99-171-246-155v312" id="be"/><g id="U"><use transform="matrix(0.024444444444444425,0,0,0.024444444444444425,0,0)" xlink:href="#be"/><use transform="matrix(0.024444444444444425,0,0,0.024444444444444425,20.191111111111095,0)" xlink:href="#as"/><use transform="matrix(0.024444444444444425,0,0,0.024444444444444425,32.291111111111086,0)" xlink:href="#aC"/><use transform="matrix(0.024444444444444425,0,0,0.024444444444444425,47.15333333333329,0)" xlink:href="#ax"/><use transform="matrix(0.024444444444444425,0,0,0.024444444444444425,61.59999999999995,0)" xlink:href="#ao"/><use transform="matrix(0.024444444444444425,0,0,0.024444444444444425,72.4044444444444,0)" xlink:href="#aA"/></g><g id="V"><use transform="matrix(0.024444444444444425,0,0,0.024444444444444425,0,0)" xlink:href="#aC"/><use transform="matrix(0.024444444444444425,0,0,0.024444444444444425,14.86222222222221,0)" xlink:href="#as"/><use transform="matrix(0.024444444444444425,0,0,0.024444444444444425,26.986666666666647,0)" xlink:href="#ao"/><use transform="matrix(0.024444444444444425,0,0,0.024444444444444425,38.01111111111108,0)" xlink:href="#aw"/><use transform="matrix(0.024444444444444425,0,0,0.024444444444444425,45.931111111111065,0)" xlink:href="#ax"/><use transform="matrix(0.024444444444444425,0,0,0.024444444444444425,60.377777777777716,0)" xlink:href="#ao"/><use transform="matrix(0.024444444444444425,0,0,0.024444444444444425,71.30444444444439,0)" xlink:href="#aD"/><use transform="matrix(0.024444444444444425,0,0,0.024444444444444425,95.50444444444437,0)" xlink:href="#at"/><use transform="matrix(0.024444444444444425,0,0,0.024444444444444425,107.60444444444435,0)" xlink:href="#aI"/><use transform="matrix(0.024444444444444425,0,0,0.024444444444444425,122.29555555555545,0)" xlink:href="#au"/><use transform="matrix(0.024444444444444425,0,0,0.024444444444444425,134.8599999999999,0)" xlink:href="#as"/></g><use transform="matrix(0.024444444444444425,0,0,0.024444444444444425,0,0)" xlink:href="#at" id="W"/><g id="X"><use transform="matrix(0.024444444444444425,0,0,0.024444444444444425,0,0)" xlink:href="#az"/><use transform="matrix(0.024444444444444425,0,0,0.024444444444444425,9.728888888888882,0)" xlink:href="#ax"/><use transform="matrix(0.024444444444444425,0,0,0.024444444444444425,24.151111111111092,0)" xlink:href="#aw"/><use transform="matrix(0.024444444444444425,0,0,0.024444444444444425,32.584444444444415,0)" xlink:href="#aA"/></g><g id="Y"><use transform="matrix(0.024444444444444425,0,0,0.024444444444444425,0,0)" xlink:href="#aH"/><use transform="matrix(0.024444444444444425,0,0,0.024444444444444425,12.735555555555546,0)" xlink:href="#ax"/><use transform="matrix(0.024444444444444425,0,0,0.024444444444444425,27.108888888888867,0)" xlink:href="#aA"/><use transform="matrix(0.024444444444444425,0,0,0.024444444444444425,36.15333333333331,0)" xlink:href="#ap"/><use transform="matrix(0.024444444444444425,0,0,0.024444444444444425,43.657777777777746,0)" xlink:href="#aI"/><use transform="matrix(0.024444444444444425,0,0,0.024444444444444425,58.348888888888844,0)" xlink:href="#aK"/></g><g id="Z"><use transform="matrix(0.024444444444444425,0,0,0.024444444444444425,0,0)" xlink:href="#au"/><use transform="matrix(0.024444444444444425,0,0,0.024444444444444425,12.124444444444435,0)" xlink:href="#aG"/><use transform="matrix(0.024444444444444425,0,0,0.024444444444444425,19.457777777777764,0)" xlink:href="#at"/><use transform="matrix(0.024444444444444425,0,0,0.024444444444444425,31.8022222222222,0)" xlink:href="#az"/><use transform="matrix(0.024444444444444425,0,0,0.024444444444444425,41.62888888888886,0)" xlink:href="#az"/><use transform="matrix(0.024444444444444425,0,0,0.024444444444444425,51.45555555555553,0)" xlink:href="#ap"/><use transform="matrix(0.024444444444444425,0,0,0.024444444444444425,58.95999999999995,0)" xlink:href="#aw"/><use transform="matrix(0.024444444444444425,0,0,0.024444444444444425,67.39333333333329,0)" xlink:href="#ap"/><use transform="matrix(0.024444444444444425,0,0,0.024444444444444425,74.75111111111107,0)" xlink:href="#as"/><use transform="matrix(0.024444444444444425,0,0,0.024444444444444425,86.87555555555551,0)" xlink:href="#ao"/></g><g id="aa"><use transform="matrix(0.024444444444444425,0,0,0.024444444444444425,0,0)" xlink:href="#aD"/><use transform="matrix(0.024444444444444425,0,0,0.024444444444444425,24.077777777777758,0)" xlink:href="#ax"/><use transform="matrix(0.024444444444444425,0,0,0.024444444444444425,38.64666666666663,0)" xlink:href="#aq"/><use transform="matrix(0.024444444444444425,0,0,0.024444444444444425,53.0444444444444,0)" xlink:href="#as"/><use transform="matrix(0.024444444444444425,0,0,0.024444444444444425,65.0955555555555,0)" xlink:href="#aG"/></g><path fill="#3a414a" d="M186-122c-35 72 25 83 99 80V0H0v-42c69 3 91-16 121-99l183-512-11-30h157l215 545c28 71 53 92 109 96V0H424v-42c49 2 109 0 102-41-11-56-43-114-62-166H231zm67-186h187l-99-250" id="bf"/><g id="ab"><use transform="matrix(0.024444444444444425,0,0,0.024444444444444425,0,0)" xlink:href="#bf"/><use transform="matrix(0.024444444444444425,0,0,0.024444444444444425,18.84666666666665,0)" xlink:href="#aC"/><use transform="matrix(0.024444444444444425,0,0,0.024444444444444425,33.56222222222219,0)" xlink:href="#aC"/><use transform="matrix(0.024444444444444425,0,0,0.024444444444444425,48.22888888888884,0)" xlink:href="#aG"/><use transform="matrix(0.024444444444444425,0,0,0.024444444444444425,55.56222222222217,0)" xlink:href="#aB"/></g><g id="ac"><use transform="matrix(0.024444444444444425,0,0,0.024444444444444425,0,0)" xlink:href="#aY"/><use transform="matrix(0.024444444444444425,0,0,0.024444444444444425,21.38888888888887,0)" xlink:href="#at"/><use transform="matrix(0.024444444444444425,0,0,0.024444444444444425,33.31777777777775,0)" xlink:href="#aA"/><use transform="matrix(0.024444444444444425,0,0,0.024444444444444425,42.65555555555552,0)" xlink:href="#at"/></g><g id="ad"><use transform="matrix(0.024444444444444425,0,0,0.024444444444444425,0,0)" xlink:href="#bf"/><use transform="matrix(0.024444444444444425,0,0,0.024444444444444425,18.919999999999984,0)" xlink:href="#aL"/><use transform="matrix(0.024444444444444425,0,0,0.024444444444444425,33.659999999999975,0)" xlink:href="#aK"/><use transform="matrix(0.024444444444444425,0,0,0.024444444444444425,47.78888888888885,0)" xlink:href="#aD"/><use transform="matrix(0.024444444444444425,0,0,0.024444444444444425,71.93999999999994,0)" xlink:href="#as"/><use transform="matrix(0.024444444444444425,0,0,0.024444444444444425,84.1377777777777,0)" xlink:href="#aI"/><use transform="matrix(0.024444444444444425,0,0,0.024444444444444425,98.80444444444436,0)" xlink:href="#aA"/><use transform="matrix(0.024444444444444425,0,0,0.024444444444444425,108.14222222222213,0)" xlink:href="#at"/><use transform="matrix(0.024444444444444425,0,0,0.024444444444444425,120.07111111111101,0)" xlink:href="#aA"/><use transform="matrix(0.024444444444444425,0,0,0.024444444444444425,129.11555555555543,0)" xlink:href="#ap"/><use transform="matrix(0.024444444444444425,0,0,0.024444444444444425,136.3022222222221,0)" xlink:href="#ax"/><use transform="matrix(0.024444444444444425,0,0,0.024444444444444425,150.74888888888873,0)" xlink:href="#aI"/></g><g id="ae"><use transform="matrix(0.024444444444444425,0,0,0.024444444444444425,0,0)" xlink:href="#ax"/><use transform="matrix(0.024444444444444425,0,0,0.024444444444444425,14.446666666666655,0)" xlink:href="#aI"/></g><g id="af"><use transform="matrix(0.024444444444444425,0,0,0.024444444444444425,0,0)" xlink:href="#az"/><use transform="matrix(0.024444444444444425,0,0,0.024444444444444425,9.826666666666659,0)" xlink:href="#as"/><use transform="matrix(0.024444444444444425,0,0,0.024444444444444425,21.87777777777776,0)" xlink:href="#aA"/></g><g id="ag"><use transform="matrix(0.024444444444444425,0,0,0.024444444444444425,0,0)" xlink:href="#aO"/><use transform="matrix(0.024444444444444425,0,0,0.024444444444444425,9.28888888888888,0)" xlink:href="#be"/><use transform="matrix(0.024444444444444425,0,0,0.024444444444444425,30.042222222222197,0)" xlink:href="#at"/><use transform="matrix(0.024444444444444425,0,0,0.024444444444444425,42.14222222222219,0)" xlink:href="#aI"/><use transform="matrix(0.024444444444444425,0,0,0.024444444444444425,56.931111111111065,0)" xlink:href="#aq"/><use transform="matrix(0.024444444444444425,0,0,0.024444444444444425,71.2555555555555,0)" xlink:href="#ax"/><use transform="matrix(0.024444444444444425,0,0,0.024444444444444425,85.7266666666666,0)" xlink:href="#aD"/></g><path fill="#3a414a" d="M341-59c88 9 109-45 140-90h33L464 0H22v-34l283-345H156c-42 0-55 13-92 91H28l35-180h36c0 25-1 30 40 30h354v30L207-59h134" id="bg"/><g id="ah"><use transform="matrix(0.024444444444444425,0,0,0.024444444444444425,0,0)" xlink:href="#bd"/><use transform="matrix(0.024444444444444425,0,0,0.024444444444444425,21.535555555555536,0)" xlink:href="#ax"/><use transform="matrix(0.024444444444444425,0,0,0.024444444444444425,35.98222222222219,0)" xlink:href="#ao"/><use transform="matrix(0.024444444444444425,0,0,0.024444444444444425,46.933333333333294,0)" xlink:href="#ap"/><use transform="matrix(0.024444444444444425,0,0,0.024444444444444425,54.75555555555551,0)" xlink:href="#bg"/><use transform="matrix(0.024444444444444425,0,0,0.024444444444444425,67.80888888888883,0)" xlink:href="#ax"/><use transform="matrix(0.024444444444444425,0,0,0.024444444444444425,82.25555555555549,0)" xlink:href="#aI"/><use transform="matrix(0.024444444444444425,0,0,0.024444444444444425,96.92222222222215,0)" xlink:href="#aA"/><use transform="matrix(0.024444444444444425,0,0,0.024444444444444425,106.25999999999992,0)" xlink:href="#at"/><use transform="matrix(0.024444444444444425,0,0,0.024444444444444425,118.3599999999999,0)" xlink:href="#aG"/></g><g id="ai"><use transform="matrix(0.024444444444444425,0,0,0.024444444444444425,0,0)" xlink:href="#aw"/><use transform="matrix(0.024444444444444425,0,0,0.024444444444444425,8.433333333333326,0)" xlink:href="#aG"/><use transform="matrix(0.024444444444444425,0,0,0.024444444444444425,15.839999999999987,0)" xlink:href="#ap"/><use transform="matrix(0.024444444444444425,0,0,0.024444444444444425,23.344444444444427,0)" xlink:href="#aC"/></g><g id="aj"><use transform="matrix(0.024444444444444425,0,0,0.024444444444444425,0,0)" xlink:href="#at"/><use transform="matrix(0.024444444444444425,0,0,0.024444444444444425,12.09999999999999,0)" xlink:href="#aI"/><use transform="matrix(0.024444444444444425,0,0,0.024444444444444425,26.88888888888886,0)" xlink:href="#aq"/></g><g id="ak"><use transform="matrix(0.024444444444444425,0,0,0.024444444444444425,0,0)" xlink:href="#aI"/><use transform="matrix(0.024444444444444425,0,0,0.024444444444444425,14.6911111111111,0)" xlink:href="#ax"/><use transform="matrix(0.024444444444444425,0,0,0.024444444444444425,29.11333333333331,0)" xlink:href="#ap"/><use transform="matrix(0.024444444444444425,0,0,0.024444444444444425,36.61777777777775,0)" xlink:href="#az"/><use transform="matrix(0.024444444444444425,0,0,0.024444444444444425,46.44444444444441,0)" xlink:href="#as"/></g><g id="al"><use transform="matrix(0.024444444444444425,0,0,0.024444444444444425,0,0)" xlink:href="#at"/><use transform="matrix(0.024444444444444425,0,0,0.024444444444444425,12.09999999999999,0)" xlink:href="#aq"/><use transform="matrix(0.024444444444444425,0,0,0.024444444444444425,26.57111111111109,0)" xlink:href="#aq"/><use transform="matrix(0.024444444444444425,0,0,0.024444444444444425,41.04222222222219,0)" xlink:href="#ap"/><use transform="matrix(0.024444444444444425,0,0,0.024444444444444425,48.54666666666663,0)" xlink:href="#aA"/><use transform="matrix(0.024444444444444425,0,0,0.024444444444444425,57.59111111111107,0)" xlink:href="#ap"/><use transform="matrix(0.024444444444444425,0,0,0.024444444444444425,64.77777777777773,0)" xlink:href="#ax"/><use transform="matrix(0.024444444444444425,0,0,0.024444444444444425,79.22444444444439,0)" xlink:href="#aI"/><use transform="matrix(0.024444444444444425,0,0,0.024444444444444425,94.23333333333326,0)" xlink:href="#aV"/></g></defs></g></svg>